PathFileType	4	(X/Y/Z)	c:/Users/goper/Files/vsCode/490R/osim_files/C05/C05_SSWS_05.trc
DataRate	CameraRate	NumFrames	NumMarkers	Units                	OrigDataRate	OrigDataStartFrame	OrigNumFrames
250.00	250.00	6	36	mm	250.0	1043	2781
                Frame#	Time	LPSIS			LASIS			LTH1			LTH2			LTH3			LTH4			LLFE			LMFE			LSH1			LSH2			LSH3			LSH4			LLMAL			LMMAL			LCAL			LMTP5			LTOE			LMTP1			RPSIS			RASIS			RTH1			RTH2			RTH3			RTH4			RLFE			RMFE			RSH1			RSH2			RSH3			RSH4			RLMAL			RMMAL			RCAL			RMTP1			RTOE			RMTP5		
		X1	Y1	Z1	X2	Y2	Z2	X3	Y3	Z3	X4	Y4	Z4	X5	Y5	Z5	X6	Y6	Z6	X7	Y7	Z7	X8	Y8	Z8	X9	Y9	Z9	X10	Y10	Z10	X11	Y11	Z11	X12	Y12	Z12	X13	Y13	Z13	X14	Y14	Z14	X15	Y15	Z15	X16	Y16	Z16	X17	Y17	Z17	X18	Y18	Z18	X19	Y19	Z19	X20	Y20	Z20	X21	Y21	Z21	X22	Y22	Z22	X23	Y23	Z23	X24	Y24	Z24	X25	Y25	Z25	X26	Y26	Z26	X27	Y27	Z27	X28	Y28	Z28	X29	Y29	Z29	X30	Y30	Z30	X31	Y31	Z31	X32	Y32	Z32	X33	Y33	Z33	X34	Y34	Z34	X35	Y35	Z35	X36	Y36	Z36

1043	4.16800	1956.52600	1027.15894	311.49539	1763.00610	982.20203	384.36560	1926.55786	674.22034	411.25696	1923.93408	610.84821	401.04462	0.00000	0.00000	0.00000	0.00000	0.00000	0.00000	1901.53625	502.66171	387.76538	0.00000	0.00000	0.00000	2087.53833	420.73270	389.31094	0.00000	0.00000	0.00000	2040.77844	379.06720	406.14496	0.00000	0.00000	0.00000	2082.99487	362.60638	402.02951	0.00000	0.00000	0.00000	0.00000	0.00000	0.00000	0.00000	0.00000	0.00000	2058.95801	334.54208	384.32712	0.00000	0.00000	0.00000	1946.51282	1034.63965	203.17101	0.00000	0.00000	0.00000	1752.16748	661.11554	102.53068	1723.85913	609.28009	117.22847	0.00000	0.00000	0.00000	1665.42761	638.01831	122.82398	0.00000	0.00000	0.00000	1654.41382	539.63306	146.86188	0.00000	0.00000	0.00000	0.00000	0.00000	0.00000	0.00000	0.00000	0.00000	0.00000	0.00000	0.00000	1661.97327	93.87594	174.90639	1646.08569	108.58160	259.09067	1729.76807	69.90015	225.19301	1510.08826	44.66998	257.18524	1489.48328	72.04968	209.48593	1533.31738	36.25104	147.13937
1044	4.17200	1951.77100	1027.35803	311.37399	1758.17737	982.67480	383.77655	1919.40808	673.36920	410.93115	1916.26392	610.03802	400.90762	0.00000	0.00000	0.00000	0.00000	0.00000	0.00000	1892.90149	502.21216	388.03696	0.00000	0.00000	0.00000	2078.87280	422.05783	389.46509	0.00000	0.00000	0.00000	2032.78223	379.89502	406.40265	0.00000	0.00000	0.00000	0.00000	0.00000	0.00000	2075.36206	363.68954	402.33212	0.00000	0.00000	0.00000	2050.98267	336.03152	384.52853	0.00000	0.00000	0.00000	0.00000	0.00000	0.00000	1941.75012	1035.15039	203.01706	0.00000	0.00000	0.00000	1748.80151	660.91980	102.27734	1720.97192	609.05286	117.25268	0.00000	0.00000	0.00000	1662.40869	637.45294	121.98348	0.00000	0.00000	0.00000	1652.71497	539.76605	145.87929	0.00000	0.00000	0.00000	1697.52429	324.23926	127.48636	1648.51831	376.10599	131.99997	0.00000	0.00000	0.00000	1661.71326	93.92771	175.08453	1645.84680	108.52341	259.26501	1729.75977	70.05238	225.24484	1510.45667	44.25859	257.80743	1489.16382	71.38762	209.80107	1533.21301	36.14779	147.25980
1045	4.17600	1947.10144	1027.56873	311.18784	1753.38086	982.98627	383.06537	1912.23877	672.53546	410.53793	1908.52588	609.19379	400.73679	0.00000	0.00000	0.00000	0.00000	0.00000	0.00000	1884.14148	501.74649	388.26239	0.00000	0.00000	0.00000	2070.29590	423.54385	389.66449	0.00000	0.00000	0.00000	2024.61023	380.70889	406.64279	0.00000	0.00000	0.00000	2067.25830	364.53137	402.63852	0.00000	0.00000	0.00000	0.00000	0.00000	0.00000	0.00000	0.00000	0.00000	0.00000	0.00000	0.00000	2042.93152	337.62332	384.76501	1937.06531	1035.72803	202.75340	0.00000	0.00000	0.00000	1744.62195	659.98547	101.99468	1718.20654	608.77875	117.30242	1679.85840	694.74438	106.26147	1659.45117	636.71490	121.30759	0.00000	0.00000	0.00000	1649.64124	539.53650	145.67943	0.00000	0.00000	0.00000	1695.85461	324.51163	127.91232	0.00000	0.00000	0.00000	0.00000	0.00000	0.00000	1661.45325	93.95684	175.28294	1645.94214	108.61756	259.69083	1729.76147	70.15260	225.27632	1510.52686	43.83791	258.07773	1488.97351	70.80042	210.22876	1533.07385	36.04595	147.37970
1046	4.18000	1942.48096	1027.76086	310.94238	1748.87231	983.46790	382.46432	1905.03223	671.67004	410.24609	1900.75110	608.37378	400.62634	0.00000	0.00000	0.00000	0.00000	0.00000	0.00000	1877.37292	503.42664	388.99356	0.00000	0.00000	0.00000	2061.44434	424.89233	389.86035	2089.41260	390.46106	386.18314	2016.27368	381.49658	406.90308	0.00000	0.00000	0.00000	0.00000	0.00000	0.00000	1673.71167	535.68689	275.01501	0.00000	0.00000	0.00000	0.00000	0.00000	0.00000	2059.19067	365.54599	402.89328	0.00000	0.00000	0.00000	1932.36865	1036.20764	202.51248	0.00000	0.00000	0.00000	1740.32397	658.50073	101.70795	1715.47766	608.31567	117.46140	1676.74243	694.02625	105.37915	1656.62036	635.86676	120.78120	0.00000	0.00000	0.00000	1646.57751	539.16895	145.59111	0.00000	0.00000	0.00000	1694.48303	324.81818	128.34120	1644.41504	375.96100	132.04904	0.00000	0.00000	0.00000	1661.23572	94.01268	175.44629	1645.80005	108.52100	259.87549	1729.69116	70.11854	225.29962	1509.68030	43.02710	257.91946	1488.46692	70.08128	210.24756	1532.95959	36.02726	147.50211
1047	4.18400	1937.92456	1027.94836	310.65784	1744.46606	983.95270	381.98474	1897.81030	670.84222	409.90698	1892.89246	607.55853	400.49069	0.00000	0.00000	0.00000	0.00000	0.00000	0.00000	1868.37280	502.90979	389.20862	0.00000	0.00000	0.00000	2052.35327	426.22974	390.01953	2080.77832	392.10767	386.35245	2005.15625	379.39551	406.53067	2042.34265	355.20920	399.99634	0.00000	0.00000	0.00000	0.00000	0.00000	0.00000	0.00000	0.00000	0.00000	2176.58105	194.50766	284.09671	0.00000	0.00000	0.00000	0.00000	0.00000	0.00000	1927.71106	1036.73181	202.15849	0.00000	0.00000	0.00000	0.00000	0.00000	0.00000	1712.89062	607.86853	117.61779	1673.74988	693.23218	104.57108	1653.87976	635.06348	120.31210	0.00000	0.00000	0.00000	1643.63696	538.81757	145.55138	0.00000	0.00000	0.00000	1692.96997	324.92929	128.74522	0.00000	0.00000	0.00000	0.00000	0.00000	0.00000	1661.73755	94.19340	175.60599	1645.71936	108.45272	260.11203	1729.64294	70.11681	225.33449	1509.64441	42.38952	258.23355	1488.27588	69.42706	210.68633	1532.87939	36.01621	147.62323
1048	4.18800	1933.44568	1028.10791	310.30066	1739.89624	984.48889	381.38937	1890.53455	670.01727	409.56760	1885.08057	606.85498	400.34863	0.00000	0.00000	0.00000	0.00000	0.00000	0.00000	1859.27869	502.47516	389.36374	0.00000	0.00000	0.00000	2043.35156	427.72516	390.21082	2072.05615	393.85947	386.52774	1996.63074	380.35947	406.78058	2034.12683	356.55875	400.23712	0.00000	0.00000	0.00000	1640.88892	375.62506	132.27283	0.00000	0.00000	0.00000	2170.13647	197.71788	284.32990	0.00000	0.00000	0.00000	0.00000	0.00000	0.00000	1923.09448	1037.23401	201.77834	0.00000	0.00000	0.00000	0.00000	0.00000	0.00000	1710.31714	607.37921	117.78737	1670.74097	692.42242	103.92537	1651.19617	634.24756	119.90971	0.00000	0.00000	0.00000	1640.81189	538.53772	145.60449	0.00000	0.00000	0.00000	1691.78589	325.26138	129.16260	0.00000	0.00000	0.00000	0.00000	0.00000	0.00000	1660.81091	94.09831	175.82671	1645.34534	108.23080	259.97394	1729.67529	70.17896	225.37787	1510.22937	42.18491	258.85870	1488.68054	69.18060	211.45029	1532.78821	35.99681	147.74547
